<svg width="165" height="150" viewBox="0 0 165 150" fill="none" xmlns="http://www.w3.org/2000/svg">
<circle cx="5.86618" cy="45.3225" r="5" fill="#15191D"/>
<circle cx="5.86618" cy="60.1615" r="5" fill="#15191D"/>
<circle cx="5.86618" cy="75.0005" r="5" fill="#15191D"/>
<circle cx="5.86618" cy="89.8395" r="5" fill="#15191D"/>
<circle cx="5.86618" cy="104.678" r="5" fill="#15191D"/>
<circle cx="159.866" cy="45.3225" r="5" fill="#15191D"/>
<circle cx="159.866" cy="60.1615" r="5" fill="#15191D"/>
<circle cx="159.866" cy="75.0005" r="5" fill="#15191D"/>
<circle cx="159.866" cy="89.8395" r="5" fill="#15191D"/>
<circle cx="159.866" cy="104.678" r="5" fill="#15191D"/>
<circle cx="47.8662" cy="5.00049" r="5" fill="#15191D"/>
<circle cx="61.8662" cy="5.00049" r="5" fill="#15191D"/>
<circle cx="75.8661" cy="5.00049" r="5" fill="#15191D"/>
<circle cx="89.8661" cy="5.00049" r="5" fill="#15191D"/>
<circle cx="103.866" cy="5.00049" r="5" fill="#15191D"/>
<circle cx="117.866" cy="5.00049" r="5" fill="#15191D"/>
<circle cx="5" cy="5" r="5" transform="matrix(1 0 0 -1 42.8662 150)" fill="#15191D"/>
<circle cx="5" cy="5" r="5" transform="matrix(1 0 0 -1 56.8662 150)" fill="#15191D"/>
<circle cx="5" cy="5" r="5" transform="matrix(1 0 0 -1 70.8661 150)" fill="#15191D"/>
<circle cx="5" cy="5" r="5" transform="matrix(1 0 0 -1 84.8661 150)" fill="#15191D"/>
<circle cx="5" cy="5" r="5" transform="matrix(1 0 0 -1 98.8661 150)" fill="#15191D"/>
<circle cx="5" cy="5" r="5" transform="matrix(1 0 0 -1 112.866 150)" fill="#15191D"/>
<circle cx="19.8662" cy="19.0005" r="5" fill="#15191D"/>
<circle cx="5" cy="5" r="5" transform="matrix(1 0 0 -1 14.8662 136)" fill="#15191D"/>
<circle cx="19.8662" cy="33.0005" r="5" fill="#15191D"/>
<circle cx="5" cy="5" r="5" transform="matrix(1 0 0 -1 14.8662 122)" fill="#15191D"/>
<circle cx="19.8662" cy="47.0005" r="5" fill="#15191D"/>
<circle cx="19.8662" cy="61.0005" r="5" fill="#15191D"/>
<circle cx="19.8662" cy="75.0005" r="5" fill="#15191D"/>
<circle cx="19.8662" cy="89.0005" r="5" fill="#15191D"/>
<circle cx="19.8662" cy="103" r="5" fill="#15191D"/>
<circle cx="33.8662" cy="19.0005" r="5" fill="#15191D"/>
<circle cx="5" cy="5" r="5" transform="matrix(1 0 0 -1 28.8662 136)" fill="#15191D"/>
<circle cx="33.8662" cy="33.0005" r="5" fill="#15191D"/>
<circle cx="5" cy="5" r="5" transform="matrix(1 0 0 -1 28.8662 122)" fill="#15191D"/>
<circle cx="33.8662" cy="47.0005" r="5" fill="#15191D"/>
<circle cx="33.8662" cy="61.0005" r="5" fill="#15191D"/>
<circle cx="33.8662" cy="75.0005" r="5" fill="#15191D"/>
<circle cx="33.8662" cy="89.0005" r="5" fill="#15191D"/>
<circle cx="33.8662" cy="103" r="5" fill="#15191D"/>
<circle cx="47.8661" cy="19.0005" r="5" fill="#15191D"/>
<circle cx="5" cy="5" r="5" transform="matrix(1 0 0 -1 42.8661 136)" fill="#15191D"/>
<circle cx="47.8661" cy="33.0005" r="5" fill="#15191D"/>
<circle cx="5" cy="5" r="5" transform="matrix(1 0 0 -1 42.8661 122)" fill="#15191D"/>
<circle cx="47.8661" cy="47.0005" r="5" fill="#15191D"/>
<circle cx="47.8661" cy="61.0005" r="5" fill="#15191D"/>
<circle cx="47.8661" cy="75.0005" r="5" fill="#15191D"/>
<circle cx="47.8661" cy="89.0005" r="5" fill="#15191D"/>
<circle cx="47.8661" cy="103" r="5" fill="#15191D"/>
<circle cx="61.8661" cy="19.0005" r="5" fill="#15191D"/>
<circle cx="5" cy="5" r="5" transform="matrix(1 0 0 -1 56.8661 136)" fill="#15191D"/>
<circle cx="61.8661" cy="33.0005" r="5" fill="#15191D"/>
<circle cx="5" cy="5" r="5" transform="matrix(1 0 0 -1 56.8661 122)" fill="#15191D"/>
<circle cx="61.8661" cy="47.0005" r="5" fill="#15191D"/>
<circle cx="61.8661" cy="61.0005" r="5" fill="#15191D"/>
<circle cx="61.8661" cy="75.0005" r="5" fill="#15191D"/>
<circle cx="61.8661" cy="89.0005" r="5" fill="#15191D"/>
<circle cx="61.8661" cy="103" r="5" fill="#15191D"/>
<circle cx="145.866" cy="19.0005" r="5" fill="#15191D"/>
<circle cx="5" cy="5" r="5" transform="matrix(1 0 0 -1 140.866 136)" fill="#15191D"/>
<circle cx="145.866" cy="33.0005" r="5" fill="#15191D"/>
<circle cx="5" cy="5" r="5" transform="matrix(1 0 0 -1 140.866 122)" fill="#15191D"/>
<circle cx="145.866" cy="47.0005" r="5" fill="#15191D"/>
<circle cx="145.866" cy="61.0005" r="5" fill="#15191D"/>
<circle cx="145.866" cy="75.0005" r="5" fill="#15191D"/>
<circle cx="145.866" cy="89.0005" r="5" fill="#15191D"/>
<circle cx="145.866" cy="103" r="5" fill="#15191D"/>
<circle cx="103.866" cy="19.0005" r="5" fill="#15191D"/>
<circle cx="5" cy="5" r="5" transform="matrix(1 0 0 -1 98.8661 136)" fill="#15191D"/>
<circle cx="103.866" cy="33.0005" r="5" fill="#15191D"/>
<circle cx="5" cy="5" r="5" transform="matrix(1 0 0 -1 98.8661 122)" fill="#15191D"/>
<circle cx="103.866" cy="47.0005" r="5" fill="#15191D"/>
<circle cx="103.866" cy="61.0005" r="5" fill="#15191D"/>
<circle cx="103.866" cy="75.0005" r="5" fill="#15191D"/>
<circle cx="103.866" cy="89.0005" r="5" fill="#15191D"/>
<circle cx="103.866" cy="103" r="5" fill="#15191D"/>
<circle cx="75.8661" cy="19.0005" r="5" fill="#15191D"/>
<circle cx="5" cy="5" r="5" transform="matrix(1 0 0 -1 70.8661 136)" fill="#15191D"/>
<circle cx="75.8661" cy="33.0005" r="5" fill="#15191D"/>
<circle cx="5" cy="5" r="5" transform="matrix(1 0 0 -1 70.8661 122)" fill="#15191D"/>
<circle cx="75.8661" cy="47.0005" r="5" fill="#15191D"/>
<circle cx="75.8661" cy="61.0005" r="5" fill="#15191D"/>
<circle cx="75.8661" cy="75.0005" r="5" fill="#15191D"/>
<circle cx="75.8661" cy="89.0005" r="5" fill="#15191D"/>
<circle cx="75.8661" cy="103" r="5" fill="#15191D"/>
<circle cx="117.866" cy="19.0005" r="5" fill="#15191D"/>
<circle cx="5" cy="5" r="5" transform="matrix(1 0 0 -1 112.866 136)" fill="#15191D"/>
<circle cx="117.866" cy="33.0005" r="5" fill="#15191D"/>
<circle cx="5" cy="5" r="5" transform="matrix(1 0 0 -1 112.866 122)" fill="#15191D"/>
<circle cx="117.866" cy="47.0005" r="5" fill="#15191D"/>
<circle cx="117.866" cy="61.0005" r="5" fill="#15191D"/>
<circle cx="117.866" cy="75.0005" r="5" fill="#15191D"/>
<circle cx="117.866" cy="89.0005" r="5" fill="#15191D"/>
<circle cx="117.866" cy="103" r="5" fill="#15191D"/>
<circle cx="89.8661" cy="19.0005" r="5" fill="#15191D"/>
<circle cx="5" cy="5" r="5" transform="matrix(1 0 0 -1 84.8661 136)" fill="#15191D"/>
<circle cx="89.8661" cy="33.0005" r="5" fill="#15191D"/>
<circle cx="5" cy="5" r="5" transform="matrix(1 0 0 -1 84.8661 122)" fill="#15191D"/>
<circle cx="89.8661" cy="47.0005" r="5" fill="#15191D"/>
<circle cx="89.8661" cy="61.0005" r="5" fill="#15191D"/>
<circle cx="89.8661" cy="75.0005" r="5" fill="#15191D"/>
<circle cx="89.8661" cy="89.0005" r="5" fill="#15191D"/>
<circle cx="89.8661" cy="103" r="5" fill="#15191D"/>
<circle cx="131.866" cy="19.0005" r="5" fill="#15191D"/>
<circle cx="5" cy="5" r="5" transform="matrix(1 0 0 -1 126.866 136)" fill="#15191D"/>
<circle cx="131.866" cy="33.0005" r="5" fill="#15191D"/>
<circle cx="5" cy="5" r="5" transform="matrix(1 0 0 -1 126.866 122)" fill="#15191D"/>
<circle cx="131.866" cy="47.0005" r="5" fill="#15191D"/>
<circle cx="131.866" cy="61.0005" r="5" fill="#15191D"/>
<circle cx="131.866" cy="75.0005" r="5" fill="#15191D"/>
<circle cx="131.866" cy="89.0005" r="5" fill="#15191D"/>
<circle cx="131.866" cy="103" r="5" fill="#15191D"/>
</svg>
